# AST/ASF file generated using VICON BodyLanguage
# -----------------------------------------------
:version 1.10
:name VICON
:units
  mass 1.0
  length 0.45
  angle deg
:documentation
   .ast/.asf automatically generated from VICON data using
   VICON BodyBuilder and BodyLanguage model FoxedUp or BRILLIANT.MOD
:root
   order TX TY TZ RX RY RZ
   axis XYZ
   position 0 0 0  
   orientation 0 0 0 
:bonedata
  begin
     id 1 
     name lhipjoint
     direction 0.567725 -0.736092 0.368589 
     length 2.42353 
     axis 0 0 0  XYZ
  end
  begin
     id 2 
     name lfemur
     direction 0.34202 -0.939693 0  
     length 7.24894  
     axis 0 0 20  XYZ
    dof rx ry rz
    limits (-160.0 20.0)
           (-70.0 70.0)
           (-60.0 70.0)
  end
  begin
     id 3 
     name ltibia
     direction 0.34202 -0.939693 0   
     length 7.6997   
     axis 0 0 20   XYZ
    dof rx
    limits (-10.0 170.0)
  end
  begin
     id 4 
     name lfoot
     direction 0.100767 -0.276854 0.955614   
     length 2.37556   
     axis -90 7.62852e-016 20   XYZ
    dof rx rz
    limits (-45.0 90.0)
           (-70.0 20.0)
  end
  begin
     id 5 
     name ltoes
     direction 1.53592e-011 -4.21894e-011 1   
     length 1.18363   
     axis -90 7.62852e-016 20   XYZ
    dof rx
    limits (-90.0 20.0)
  end
  begin
     id 6 
     name rhipjoint
     direction -0.556459 -0.742938 0.372017   
     length 2.4012  
     axis 0 0 0  XYZ 
  end
  begin
     id 7 
     name rfemur
     direction -0.34202 -0.939693 0   
     length 7.5119   
     axis 0 0 -20   XYZ
    dof rx ry rz
    limits (-160.0 20.0)
           (-70.0 70.0)
           (-70.0 60.0)
  end
  begin
     id 8 
     name rtibia
     direction -0.34202 -0.939693 0   
     length 7.50155   
     axis 0 0 -20   XYZ
    dof rx
    limits (-10.0 170.0)
 end
 begin
     id 9 
     name rfoot
     direction -0.118427 -0.325376 0.938139   
     length 2.32487  
     axis -90 -7.62852e-016 -20   XYZ
    dof rx rz
    limits (-45.0 90.0)
           (-20.0 70.0)
  end
  begin
     id 10 
     name rtoes
     direction -1.53525e-011 -4.21868e-011 1   
     length 1.15233   
     axis -90 -7.62852e-016 -20   XYZ
    dof rx
    limits (-90.0 20.0)
  end
  begin
     id 11 
     name lowerback
     direction 0.0287568 0.999577 -0.00434502   
     length 2.15243   
     axis 0 0 0   XYZ
    dof rx ry rz
    limits (-20.0 45.0)
           (-30.0 30.0)
           (-30.0 30.0)
  end
  begin
     id 12 
     name upperback
     direction 0.0294009 0.99956 0.00404628   
     length 2.15427   
     axis 0 0 0   XYZ
    dof rx ry rz
    limits (-20.0 45.0)
           (-30.0 30.0)
           (-30.0 30.0)
  end
  begin
     id 13 
     name thorax
     direction 0.0151014 0.999868 0.0059419   
     length 2.14898   
     axis 0 0 0   XYZ
    dof rx ry rz
    limits (-20.0 45.0)
           (-30.0 30.0)
           (-30.0 30.0)
  end
  begin
     id 14 
     name lowerneck
     direction -0.0249197 0.989906 0.139515   
     length 1.6861   
     axis 0 0 0   XYZ
    dof rx ry rz
    limits (-20.0 45.0)
           (-30.0 30.0)
           (-30.0 30.0)
  end
  begin
     id 15 
     name upperneck
     direction 0.0438463 0.988795 -0.142693   
     length 1.71276   
     axis 0 0 0   XYZ
    dof rx ry rz
    limits (-20.0 45.0)
           (-30.0 30.0)
           (-30.0 30.0)
  end
  begin
     id 16
     name head
     direction 0.0148499 0.997845 -0.0639186  
     length 1.7209  
     axis 0 0 0   XYZ
    dof rx ry rz
    limits (-20.0 45.0)
           (-30.0 30.0)
           (-30.0 30.0)
  end
  begin
     id 17 
     name lclavicle
     direction 0.940298 0.323464 -0.105876  
     length 3.9048  
     axis 0 0 0   XYZ
    dof ry rz
    limits (-20.0 10.0)
           (0.0 20.0)
  end
  begin
     id 18 
     name lhumerus
     direction 1 -4.48954e-011 -4.9675e-028   
     length 4.6851   
     axis 180 -30 -90   XYZ
    dof rx ry rz
    limits (-60.0 90.0)
           (-90.0 90.0)
           (-90.0 90.0)
  end
  begin
     id 19
     name lradius
     direction 1 -4.48992e-011 -1.03359e-026   
     length 3.39626   
     axis 180 -30 -90   XYZ
    dof rx
    limits (-10.0 170.0)
  end
  begin
     id 20
     name lwrist
     direction 1 -4.48906e-011 -1.67336e-026   
     length 1.69813   
     axis 9.90442e-015 90 90   XYZ
    dof ry
    limits (-180.0 0.0)
 end
  begin
     id 21 
     name lhand
     direction 1 -4.49006e-011 -3.34673e-026   
     length 0.486078   
     axis 2.1355e-014 90 90   XYZ
    dof rx rz
    limits (-90.0 90.0)
           (-45.0 45.0)
  end
  begin
     id 22 
     name lfingers
     direction 1 -4.48992e-011 -6.69345e-026   
     length 0.391889   
     axis 4.27099e-014 90 90   XYZ
    dof rx
    limits (0.0 90.0)
  end
  begin
     id 23
     name lthumb
     direction 0.707107 -6.34926e-011 0.707107   
     length 0.562676   
     axis -90 45 2.85299e-015   XYZ
    dof rx rz
    limits (-45.0 45.0)
           (-45.0 45.0)
  end
  begin
     id 24 
     name rclavicle
     direction -0.882459 0.414895 -0.221648   
     length 3.44646  
     axis 0 0 0   XYZ 
    dof ry rz
    limits (-10.0 20.0)
           (-20.0 0.0)
  end
  begin
     id 25 
     name rhumerus
     direction -1 -4.48962e-011 -2.37984e-027  
     length 5.55576   
     axis 180 30 90   XYZ
    dof rx ry rz
    limits (-90.0 60.0)
           (-90.0 90.0)
           (-90.0 90.0)
  end
  begin
     id 26 
     name rradius
     direction -1 -4.48982e-011 -6.86791e-027   
     length 3.32774   
     axis 180 30 90   XYZ
    dof rx
    limits (-10.0 170.0)
  end
  begin
     id 27 
     name rwrist
     direction -1 -4.48961e-011 -1.67336e-026   
     length 1.66387   
     axis 9.90442e-015 -90 -90   XYZ
    dof ry
    limits (-180.0 0.0)
  end
  begin
     id 28
     name rhand
     direction -1 -4.4897e-011 -3.34673e-026   
     length 0.507628   
     axis 2.1355e-014 -90 -90   XYZ
    dof rx rz
    limits (-90.0 90.0)
           (-45.0 45.0)
  end
  begin
     id 29
     name rfingers
     direction -1 -4.48854e-011 -6.69345e-026   
     length 0.409263   
     axis 4.27099e-014 -90 -90   XYZ
    dof rx
    limits (0.0 90.0)
  end
  begin
     id 30
     name rthumb
     direction -0.707107 -6.34913e-011 0.707107   
     length 0.587622   
     axis -90 -45 -2.85299e-015   XYZ
    dof rx rz
    limits (-45.0 45.0)
           (-45.0 45.0)
  end
:hierarchy
  begin
    root lhipjoint rhipjoint lowerback
    lhipjoint lfemur
    lfemur ltibia
    ltibia lfoot
    lfoot ltoes
    rhipjoint rfemur
    rfemur rtibia
    rtibia rfoot
    rfoot rtoes
    lowerback upperback
    upperback thorax
    thorax lowerneck lclavicle rclavicle
    lowerneck upperneck
    upperneck head
    lclavicle lhumerus
    lhumerus lradius
    lradius lwrist
    lwrist lhand lthumb
    lhand lfingers
    rclavicle rhumerus
    rhumerus rradius
    rradius rwrist
    rwrist rhand rthumb
    rhand rfingers
  end

#!OML:ASF E:\motion texture\Top Level 1\Subject 1\Session 1\male.ASF
:FULLY-SPECIFIED
:DEGREES
80
root 18.9174 17.836 6.30306 12.3607 -82.3123 -6.9116
lowerback -0.199029 0.329564 -1.43707
upperback -1.46655 0.432196 0.791871
thorax -1.40735 0.235859 1.61234
lowerneck -10.828 -8.27872 -11.4472
upperneck 8.64318 -10.144 6.82637
head 5.29856 -4.94477 3.10762
rclavicle 4.17914e-014 -6.4605e-016
rhumerus -56.3677 -31.3476 -49.0872
rradius 11.5612
rwrist 50.9466
rhand 5.24185 -22.5155
rfingers 7.12502
rthumb 30.6006 -49.9923
lclavicle 4.17914e-014 -6.4605e-016
lhumerus -41.519 24.2702 68.7227
lradius 25.2283
lwrist -28.6362
lhand -8.53465 19.0339
lfingers 7.12502
lthumb 17.3943 48.2756
rfemur -23.3066 -10.4201 20.1104
rtibia 68.394
rfoot 6.39472 -17.369
rtoes 8.6927
lfemur -13.5313 -7.20817 -19.4648
ltibia 18.3802
lfoot -7.80709 0.901142
ltoes 0.247264
81
root 18.7957 17.8442 6.31803 12.0876 -82.3805 -6.66927
lowerback -0.100821 0.119159 -1.38527
upperback -1.4121 0.152195 0.892465
thorax -1.3959 0.0955143 1.6893
lowerneck -10.9619 -8.13585 -11.2353
upperneck 8.77167 -9.96091 6.71135
head 5.32714 -4.85357 3.0522
rclavicle -1.79714e-014 8.34896e-015
rhumerus -56.0442 -29.1343 -50.5184
rradius 11.8429
rwrist 47.9266
rhand 7.32698 -20.6422
rfingers 7.12502
rthumb 32.5869 -47.7287
lclavicle -1.79714e-014 8.34896e-015
lhumerus -41.2473 23.7455 68.955
lradius 25.738
lwrist -27.9776
lhand -8.94022 19.2339
lfingers 7.12502
lthumb 17.004 48.5097
rfemur -24.3685 -10.6295 19.9743
rtibia 68.8271
rfoot 5.34808 -17.6985
rtoes 9.1766
lfemur -12.917 -7.17259 -19.5802
ltibia 18.1983
lfoot -8.14467 0.934192
ltoes 0.102312
82
root 18.6745 17.8518 6.33196 11.7089 -82.4821 -6.3342
lowerback 0.00538317 -0.0797191 -1.35437
upperback -1.35313 -0.112641 0.988568
thorax -1.38441 -0.0370772 1.77363
lowerneck -11.1037 -7.99485 -11.0163
upperneck 8.92219 -9.77934 6.57441
head 5.36317 -4.76421 2.98809
rclavicle -1.45206e-014 -1.98785e-015
rhumerus -55.8008 -27.0023 -51.8982
rradius 12.2218
rwrist 44.6956
rhand 9.24011 -19.3032
rfingers 7.12502
rthumb 34.4053 -45.9961
lclavicle -1.45206e-014 -1.98785e-015
lhumerus -40.9684 23.216 69.1607
lradius 26.2245
lwrist -27.3206
lhand -9.36511 19.4502
lfingers 7.12502
lthumb 16.595 48.7606
rfemur -25.38 -10.7686 19.8209
rtibia 69.0875
rfoot 4.29859 -17.8667
rtoes 9.5942
lfemur -12.2746 -7.09711 -19.7052
ltibia 17.997
lfoot -8.47392 0.94876
ltoes 9.50817e-005
83
root 18.554 17.8584 6.34514 11.2103 -82.6127 -5.88639
lowerback 0.121438 -0.263486 -1.34023
upperback -1.2935 -0.357603 1.07721
thorax -1.37794 -0.159572 1.85997
lowerneck -11.2439 -7.85666 -10.7934
upperneck 9.08155 -9.60173 6.42497
head 5.40188 -4.67755 2.91896
rclavicle 3.24267e-015 3.27995e-015
rhumerus -55.6831 -25.0442 -53.1117
rradius 12.6918
rwrist 41.4147
rhand 10.9279 -18.4963
rfingers 7.12502
rthumb 36.0059 -44.8113
lclavicle 3.24267e-015 3.27995e-015
lhumerus -40.6737 22.7088 69.3261
lradius 26.6695
lwrist -26.7124
lhand -9.79324 19.6677
lfingers 7.12502
lthumb 16.1827 49.0122
rfemur -26.3504 -10.8463 19.6476
rtibia 69.1821
rfoot 3.23977 -17.9007
rtoes 9.86379
lfemur -11.619 -6.99613 -19.8441
ltibia 17.7882
lfoot -8.79706 0.951995
ltoes -0.0700551
84
root 18.4343 17.8638 6.35761 10.5998 -82.7763 -5.32681
lowerback 0.236779 -0.432515 -1.34178
upperback -1.23197 -0.583104 1.16031
thorax -1.36924 -0.272266 1.94965
lowerneck -11.3824 -7.71993 -10.5704
upperneck 9.23985 -9.42514 6.26363
head 5.4402 -4.59223 2.84599
rclavicle 6.3052e-015 3.97569e-015
rhumerus -55.6899 -23.3303 -54.0786
rradius 13.2317
rwrist 38.2481
rhand 12.3192 -18.1429
rfingers 7.12502
rthumb 37.3225 -44.1233
lclavicle 6.3052e-015 3.97569e-015
lhumerus -40.364 22.2226 69.4567
lradius 27.0818
lwrist -26.1433
lhand -10.2184 19.8646
lfingers 7.12502
lthumb 15.7733 49.2419
rfemur -27.2882 -10.8567 19.4565
rtibia 69.1106
rfoot 2.1807 -17.8548
rtoes 9.94367
lfemur -10.9627 -6.87092 -19.9954
ltibia 17.5818
lfoot -9.11714 0.953554
ltoes -0.123545
85
root 18.3161 17.8677 6.36938 9.86745 -82.9586 -4.63888
lowerback 0.358941 -0.591238 -1.35941
upperback -1.17441 -0.79517 1.24061
thorax -1.36821 -0.378035 2.04584
lowerneck -11.5188 -7.58517 -10.3579
upperneck 9.39218 -9.24935 6.09878
head 5.47741 -4.50797 2.77359
rclavicle -7.74018e-015 2.38542e-015
rhumerus -55.8036 -21.8892 -54.7627
rradius 13.8205
rwrist 35.3178
rhand 13.3527 -18.1424
rfingers 7.12502
rthumb 38.2989 -43.8597
lclavicle -7.74018e-015 2.38542e-015
lhumerus -40.0457 21.7666 69.5525
lradius 27.4632
lwrist -25.6161
lhand -10.6405 20.0588
lfingers 7.12502
lthumb 15.3668 49.4678
rfemur -28.2088 -10.8262 19.248
rtibia 68.8917
rfoot 1.11616 -17.7846
rtoes 9.86818
lfemur -10.3238 -6.73243 -20.1584
ltibia 17.386
lfoot -9.43079 0.958891
ltoes -0.204422
86
root 18.199 17.8701 6.38034 9.01122 -83.1538 -3.81464
lowerback 0.480941 -0.741357 -1.3931
upperback -1.1272 -0.99608 1.31725
thorax -1.37728 -0.477962 2.14772
lowerneck -11.6291 -7.45073 -10.1531
upperneck 9.52513 -9.07553 5.9384
head 5.50569 -4.42516 2.7046
rclavicle -1.26228e-014 5.1684e-015
rhumerus -56.0068 -20.7332 -55.1501
rradius 14.4181
rwrist 32.7208
rhand 13.9949 -18.3811
rfingers 7.12502
rthumb 38.9047 -43.9284
lclavicle -1.26228e-014 5.1684e-015
lhumerus -39.7376 21.339 69.6037
lradius 27.8286
lwrist -25.1308
lhand -11.0247 20.2215
lfingers 7.12502
lthumb 14.9967 49.6585
rfemur -29.1111 -10.755 19.0258
rtibia 68.5209
rfoot 0.052788 -17.7502
rtoes 9.68326
lfemur -9.71086 -6.59147 -20.332
ltibia 17.2069
lfoot -9.74191 0.971148
ltoes -0.326729
87
root 18.0841 17.8709 6.38995 8.01862 -83.3328 -2.82738
lowerback 0.601597 -0.89422 -1.44217
upperback -1.09227 -1.20099 1.38862
thorax -1.39702 -0.579596 2.25349
lowerneck -11.7255 -7.31744 -9.95693
upperneck 9.63955 -8.90463 5.79255
head 5.52784 -4.34337 2.6418
rclavicle -1.37658e-014 -5.96354e-015
rhumerus -56.2502 -19.831 -55.302
rradius 15.0037
rwrist 30.4916
rhand 14.1945 -18.7853
rfingers 7.12502
rthumb 39.0929 -44.2787
lclavicle -1.37658e-014 -5.96354e-015
lhumerus -39.4272 20.9653 69.5985
lradius 28.169
lwrist -24.7021
lhand -11.3729 20.3707
lfingers 7.12502
lthumb 14.6612 49.8323
rfemur -30.0182 -10.679 18.796
rtibia 68.0156
rfoot -0.994982 -17.7881
rtoes 9.36774
lfemur -9.15928 -6.45817 -20.5113
ltibia 17.0635
lfoot -10.0497 0.975074
ltoes -0.508346
88
root 17.9703 17.8704 6.39871 6.90523 -83.5146 -1.70524
lowerback 0.715116 -1.04247 -1.50254
upperback -1.06483 -1.40001 1.454
thorax -1.41975 -0.678122 2.35982
lowerneck -11.7887 -7.18583 -9.77252
upperneck 9.72316 -8.73919 5.6683
head 5.53739 -4.26374 2.58837
rclavicle 2.29845e-015 0
rhumerus -56.5106 -19.1638 -55.2403
rradius 15.5486
rwrist 28.6641
rhand 13.9736 -19.3211
rfingers 7.12502
rthumb 38.8846 -44.8741
lclavicle 2.29845e-015 0
lhumerus -39.1252 20.6377 69.5407
lradius 28.4957
lwrist -24.3242
lhand -11.6772 20.5048
lfingers 7.12502
lthumb 14.3681 49.9876
rfemur -30.9058 -10.5857 18.5566
rtibia 67.37
rfoot -2.00908 -17.9122
rtoes 8.97083
lfemur -8.63442 -6.33349 -20.6976
ltibia 16.9304
lfoot -10.3505 0.990809
ltoes -0.738369
